<?xml version="1.0" encoding="UTF-8"?>
<svg xmlns="http://www.w3.org/2000/svg" xmlns:xlink="http://www.w3.org/1999/xlink"
     width="400" height="400" viewBox="0 0 400 400" transform="translate(0,400) scale(1,-1)">
<defs>
</defs>
<rect x="0" y="0" width="400" height="400" fill="#282828" />
<rect x="0" y="0" width="133" height="133" stroke="#fbf1c7" stroke-width="1" />
<rect x="0" y="133" width="133" height="266" stroke="#fbf1c7" stroke-width="1" />
<rect x="0" y="266" width="133" height="399" stroke="#fbf1c7" stroke-width="1" />
<rect x="0" y="399" width="133" height="532" stroke="#fbf1c7" stroke-width="1" />
<rect x="133" y="0" width="266" height="133" stroke="#fbf1c7" stroke-width="1" />
<rect x="133" y="133" width="266" height="266" stroke="#fbf1c7" stroke-width="1" />
<rect x="133" y="266" width="266" height="399" stroke="#fbf1c7" stroke-width="1" />
<rect x="133" y="399" width="266" height="532" stroke="#fbf1c7" stroke-width="1" />
<rect x="266" y="0" width="399" height="133" stroke="#fbf1c7" stroke-width="1" />
<rect x="266" y="133" width="399" height="266" stroke="#fbf1c7" stroke-width="1" />
<rect x="266" y="266" width="399" height="399" stroke="#fbf1c7" stroke-width="1" />
<rect x="266" y="399" width="399" height="532" stroke="#fbf1c7" stroke-width="1" />
<rect x="399" y="0" width="532" height="133" stroke="#fbf1c7" stroke-width="1" />
<rect x="399" y="133" width="532" height="266" stroke="#fbf1c7" stroke-width="1" />
<rect x="399" y="266" width="532" height="399" stroke="#fbf1c7" stroke-width="1" />
<rect x="399" y="399" width="532" height="532" stroke="#fbf1c7" stroke-width="1" />
<path d="M0,0 Q133,133,400,300" stroke="#666666" fill="none" stroke-width="1" />
</svg>