<svg width="300" height="300" viewBox="0 0 100 100" >
	<!-- The Curve -->
	<g id="layer0" >
		<rect id="cube" width="98" height="98" x="1" y="1" fill='none' label="boundary square"/>
	<g id="frame" label="layer_frame" >
		<line x1="99" y1="33" x2="1" y2="33" id="horz_line1"/>
		<line x1="99" y1="66" x2="1" y2="66" id="horz_line2"/>
		<line x1="33" y1="1" x2="33" y2="99" id="vert_line1"/>
		<line x1="66" y1="1" x2="66" y2="99" id="vert_line2"/>
	</g>
	<g id="points" label="layer_points" >
		<circle cx="49" cy="49" r="3" id="circle_neutral"/>
		<circle cx="49" cy="16" r="3" id="circle_jump"/>
		<circle cx="49" cy="82" r="3" id="circle_down"/>
		<circle cx="16" cy="16" r="3" id="circle_back_jump"/>
		<circle cx="82" cy="16" r="3" id="circle_fwd_jump"/>
		<circle cx="16" cy="49" r="3" id="circle_back"/>
		<circle cx="82" cy="49" r="3" id="circle_fwd"/>
		<circle cx="16" cy="82" r="3" id="circle_back_down"/>
		<circle cx="82" cy="82" r="3" id="circle_fwd_down"/>
	</g>
	<g id="flow" >
		<!-- The flow - construction -->
		<!-- flow 1 : feeling to discover - good -> how -> why -->
		<path d="M 52 16 Q 66 10 79 16"/>
		<path d="M 19 82 Q 33 88 46 82"/>
		<path d="M 49 46 Q 43 33 49 19"/>
		<path d="M 49 52 Q 55 66 49 79"/>
		<!-- balance  -->
		<path d="M 52 16 Q 66 22 79 16"/>
		<path d="M 19 82 Q 33 76 46 82"/>
		<path d="M 49 46 Q 55 33 49 19"/>
		<path d="M 49 52 Q 42 66 49 79"/>

		<!-- The flow 2- destruction -->
		<!-- flow 1 : feeling to discover - byd -> how -> why -->
		<path d=" M 16 19 Q 10 33 16 46"/>
		<path d="M 19 49 Q 33 55 46 49"/>
		<path d="M 52 49 Q 66 43 79 49"/>
		<path d="M 82 52 Q 88 66 82 79"/>
		<!-- balance -->
		<path d="M 16 19 Q 22 33 16 46"/>
		<path d="M 19 49 Q 33 42 46 49"/>
		<path d="M 52 49 Q 66 55 79 49"/>
		<path d="M 82 52 Q 76 66 82 79"/>
	</g>

	</g>
	<!-- Visualization of Points (Optional) -->
</svg>
