<?xml version="1.0" encoding="UTF-8"?>
<svg xmlns="http://www.w3.org/2000/svg" xmlns:xlink="http://www.w3.org/1999/xlink"
     width="400" height="400" viewBox="0 0 400 400" transform="translate(0,400) scale(1,-1)">
<defs>
</defs>
<path d="M10,10 L390,10" stroke="#000000" stroke-width="10" />
<path d="M10,20 L390,20" stroke="#191919" stroke-width="10" />
<path d="M10,30 L390,30" stroke="#333333" stroke-width="10" />
<path d="M10,40 L390,40" stroke="#4C4C4C" stroke-width="10" />
<path d="M10,50 L390,50" stroke="#666666" stroke-width="10" />
<path d="M10,60 L390,60" stroke="#7F7F7F" stroke-width="10" />
<path d="M10,70 L390,70" stroke="#939393" stroke-width="10" />
<path d="M10,80 L390,80" stroke="#A5A5A5" stroke-width="10" />
<path d="M10,90 L390,90" stroke="#BABABA" stroke-width="10" />
<path d="M10,100 L390,100" stroke="#D0D0D0" stroke-width="10" />
<path d="M10,110 L390,110" stroke="#E8E8E8" stroke-width="10" />
<path d="M10,120 L390,120" stroke="#FFFFFF" stroke-width="10" />
<path d="M10,130 L390,130" stroke="#1d2021" stroke-width="10" />
<path d="M10,140 L390,140" stroke="#282828" stroke-width="10" />
<path d="M10,150 L390,150" stroke="#32302f" stroke-width="10" />
<path d="M10,160 L390,160" stroke="#3c3836" stroke-width="10" />
<path d="M10,170 L390,170" stroke="#504945" stroke-width="10" />
<path d="M10,180 L390,180" stroke="#665c54" stroke-width="10" />
<path d="M10,190 L390,190" stroke="#7c6f64" stroke-width="10" />
<path d="M10,200 L390,200" stroke="black " stroke-width="10" />
<path d="M10,210 L390,210" stroke="#ebdbb2" stroke-width="10" />
<path d="M10,220 L390,220" stroke="#d5c4a1" stroke-width="10" />
<path d="M10,230 L390,230" stroke="#bdae93" stroke-width="10" />
<path d="M10,240 L390,240" stroke="#a89984" stroke-width="10" />
<path d="M10,250 L390,250" stroke="#fb4934" stroke-width="10" />
<path d="M10,260 L390,260" stroke="#b8bb26" stroke-width="10" />
<path d="M10,270 L390,270" stroke="#fabd2f" stroke-width="10" />
<path d="M10,280 L390,280" stroke="#83a598" stroke-width="10" />
<path d="M10,290 L390,290" stroke="#d3869b" stroke-width="10" />
<path d="M10,300 L390,300" stroke="#8ec07c" stroke-width="10" />
<path d="M10,310 L390,310" stroke="#928374" stroke-width="10" />
<path d="M10,320 L390,320" stroke="#fe8019" stroke-width="10" />
<path d="M10,330 L390,330" stroke="#cc2412" stroke-width="10" />
<path d="M10,340 L390,340" stroke="#98971a" stroke-width="10" />
<path d="M10,350 L390,350" stroke="#d79921" stroke-width="10" />
<path d="M10,360 L390,360" stroke="#458588" stroke-width="10" />
<path d="M10,370 L390,370" stroke="#b16286" stroke-width="10" />
<path d="M10,380 L390,380" stroke="#689d6a" stroke-width="10" />
<path d="M10,390 L390,390" stroke="#d65d0e" stroke-width="10" />
</svg>